<?xml version="1.0" encoding="utf-8"?>
<!-- Generator: Adobe Illustrator 25.3.1, SVG Export Plug-In . SVG Version: 6.00 Build 0)  -->
<svg version="1.1" id="圖層_1" xmlns="http://www.w3.org/2000/svg" xmlns:xlink="http://www.w3.org/1999/xlink" x="0px" y="0px"
	 viewBox="0 0 600 1200" style="enable-background:new 0 0 600 1200;" xml:space="preserve">
<style type="text/css">
	.st0{fill:#161663;}
	.st1{fill:none;stroke:#000000;stroke-width:0.1309;}
	.st2{fill:none;}
	.st3{fill:#FCF4E1;stroke:#000000;stroke-width:5.2347;}
	.st4{fill-opacity:0.35;}
	.st5{stroke:#222222;stroke-width:0.2617;}
	.st6{fill:#D7D7D7;}
	.st7{fill:url(#SVGID_1_);fill-opacity:0.38;stroke:#0A0C0F;stroke-width:1.963;}
	.st8{clip-path:url(#SVGID_3_);}
	.st9{fill:#FDECA0;}
	.st10{fill:#FD4043;}
	.st11{fill:#FCF4E1;}
	.st12{fill:#FDA748;}
	.st13{fill:#0270D8;}
	.st14{clip-path:url(#SVGID_3_);fill:#FDA748;}
	.st15{clip-path:url(#SVGID_3_);fill:#FDECA0;}
</style>
<g>
	<g>
		<path class="st0" d="M6.8,435.3c0-1.4,1.1-2.5,2.5-2.5h1.3v91H9.3c-1.4,0-2.5-1.1-2.5-2.5V435.3z"/>
		<path class="st0" d="M6.8,319.7c0-1.4,1.1-2.5,2.5-2.5h1.3v91H9.3c-1.4,0-2.5-1.1-2.5-2.5V319.7z"/>
		<path class="st0" d="M4.7,233.3c0-1.4,1.1-2.5,2.5-2.5h3.4v44.9H7.2c-1.4,0-2.5-1.1-2.5-2.5V233.3z"/>
		<path class="st0" d="M591.5,380.2h1.3c1.4,0,2.5,1.1,2.5,2.5v138.5c0,1.4-1.1,2.5-2.5,2.5h-1.3V380.2z"/>
		<g>
			<path class="st1" d="M10.6,231.2v44.7"/>
		</g>
		<g>
			<path class="st1" d="M10.6,317.6V408"/>
		</g>
		<path class="st2" d="M116.9,0h368.4c58.7,0,106.3,47.6,106.3,106.3v987.4c0,58.7-47.6,106.3-106.3,106.3H116.9
			c-58.7,0-106.3-47.6-106.3-106.3V106.3C10.6,47.6,58.2,0,116.9,0z"/>
		<path class="st0" d="M116.9,0h368.4c58.7,0,106.3,47.6,106.3,106.3v987.4c0,58.7-47.6,106.3-106.3,106.3H116.9
			c-58.7,0-106.3-47.6-106.3-106.3V106.3C10.6,47.6,58.2,0,116.9,0z"/>
		<path class="st3" d="M122.8,14.4h356.5c54,0,97.8,43.8,97.8,97.8v975.6c0,54-43.8,97.8-97.8,97.8H122.8c-54,0-97.8-43.8-97.8-97.8
			V112.2C25,58.2,68.8,14.4,122.8,14.4z"/>
		<path class="st4" d="M132.5,1193.4l8.5,0.2v6.4h-8.5V1193.4z"/>
		<path class="st4" d="M585.2,126.2h6.4v8.5h-6.4V126.2z"/>
		<path class="st4" d="M585.2,1069.2h6.4v8.5H585L585.2,1069.2z"/>
		<path class="st2" d="M122.4,22.9h357.4c49.1,0,88.9,39.8,88.9,88.9v976.4c0,49.1-39.8,88.9-88.9,88.9H122.4
			c-49.1,0-88.9-39.8-88.9-88.9V111.8C33.5,62.7,73.3,22.9,122.4,22.9z"/>
		<path class="st5" d="M364.1,6.4c-0.2,2.8-2.6,5.1-5.5,5.1H243.5c-2.9,0-5.3-2.2-5.5-5.1h63.1H364.1z"/>
		<path class="st4" d="M462,0h8.5v6.6L462,6.1V0z"/>
		<path class="st4" d="M10.6,127.9h6.4l-0.2,8.3l-6.1,0.2V127.9z"/>
		<path class="st4" d="M10.6,1069.2h6.1l0.2,8.5h-6.4V1069.2z"/>
	</g>
	<g>
		<path class="st6" d="M360.6,48.3c8.8,0,15.9,7.1,15.9,15.9c0,8.8-7.1,15.9-15.9,15.9c-8.8,0-15.9-7.1-15.9-15.9
			C344.7,55.4,351.8,48.3,360.6,48.3z"/>
		<path d="M240.3,39.8h119.4c13.4,0,24.3,10.9,24.3,24.3l0,0c0,13.4-10.9,24.3-24.3,24.3H240.3c-13.4,0-24.3-10.9-24.3-24.3l0,0
			C215.9,50.7,226.8,39.8,240.3,39.8z"/>
		
			<linearGradient id="SVGID_1_" gradientUnits="userSpaceOnUse" x1="549.2155" y1="977.3587" x2="549.0834" y2="985.2722" gradientTransform="matrix(1 0 0 -1 -196 1046)">
			<stop  offset="3.819270e-02" style="stop-color:#102D71"/>
			<stop  offset="1" style="stop-color:#1C2D4B"/>
		</linearGradient>
		<path class="st7" d="M353.1,73.5c5.2,0,9.5-4.1,9.5-9.3c0-5.2-4.4-9.3-9.5-9.3c-5.2,0-9.5,4.1-9.5,9.3
			C343.6,69.4,348,73.5,353.1,73.5z"/>
	</g>
	<g>
		<g>
			<g>
				<path d="M493.4,85.5c-5.5,0-9.9-4.4-9.9-9.9s4.4-9.9,9.9-9.9c5.5,0,9.9,4.4,9.9,9.9S498.9,85.5,493.4,85.5z M493.4,68.9
					c-3.7,0-6.7,3-6.7,6.7s3,6.7,6.7,6.7s6.7-3,6.7-6.7S497.1,68.9,493.4,68.9z"/>
			</g>
			<rect x="503.3" y="78.2" transform="matrix(0.7071 -0.7071 0.7071 0.7071 86.5798 382.458)" width="3.3" height="17"/>
		</g>
		<g>
			<rect x="102.9" y="55.7" transform="matrix(6.123234e-17 -1 1 6.123234e-17 35.9025 173.0809)" width="3.3" height="25.9"/>
			<rect x="102.9" y="63.4" transform="matrix(6.123234e-17 -1 1 6.123234e-17 28.1133 180.8701)" width="3.3" height="25.9"/>
			<rect x="102.9" y="71.8" transform="matrix(6.123234e-17 -1 1 6.123234e-17 19.7364 189.247)" width="3.3" height="25.9"/>
		</g>
		<g>
			<defs>
				<path id="SVGID_2_" d="M128.2,15.4h345.6c52.4,0,94.8,43.4,94.8,97v967.7c0,13.1-0.3,26.4-4.9,37.8
					c-4.9,12.2-12.4,24.5-21.5,33.6c-8,8.1-18.5,14.2-28.9,19c-11.7,5.3-24,6.6-39.5,6.6H128.2c-12.6,0-20.4-1-29.6-3.5
					c-33-8.7-57.9-33.3-64.1-72.9c-1-6.3-1.1-13.6-1.1-20.6V112.4C33.4,58.9,75.8,15.4,128.2,15.4z"/>
			</defs>
			<clipPath id="SVGID_3_">
				<use xlink:href="#SVGID_2_"  style="overflow:visible;"/>
			</clipPath>
			<g class="st8">
				<path class="st9" d="M299.9,893.5H24V611.2h229.1c25.8,0,46.8,20.9,46.8,46.8V893.5z"/>
				<rect x="299.9" y="611.2" class="st10" width="275.9" height="282.3"/>
				<path class="st9" d="M575.7,917.2v234.9c0,13.1-10.6,23.7-23.7,23.7H299.9V893.5H552C565.1,893.5,575.7,904.1,575.7,917.2z"/>
				<path class="st10" d="M70,893.5h183.9c25.4,0,46,20.6,46,46v213c0,12.9-10.5,23.3-23.3,23.3H70c-25.4,0-46-20.6-46-46V939.5
					C24,914.1,44.6,893.5,70,893.5z"/>
				<rect x="410.3" y="723.3" class="st11" width="56" height="57.3"/>
				<rect x="355.2" y="779.1" class="st11" width="56" height="57.3"/>
				<rect x="299.8" y="836.5" class="st11" width="56" height="57.3"/>
				<path class="st12" d="M205.8,1030.9h94v144.4H158.8v-97.3C158.8,1051.9,179.9,1030.9,205.8,1030.9z"/>
				<rect x="520.9" y="611.4" class="st11" width="55.1" height="56.5"/>
				<rect x="465.1" y="667.4" class="st11" width="56" height="57.3"/>
				<path class="st12" d="M429.1,962.1c0,0,2.3,28.9,22.6,50.4c18,19,50.2,20.4,50.2,20.4s-34.9,2.2-51.9,23.6
					c-17.6,22.1-19.3,47.9-19.3,47.9s-8.6-40.1-30.3-53.8s-45.1-15.5-45.1-15.5s34.9-5.5,53-26.4
					C426.9,987.2,429.1,962.1,429.1,962.1z"/>
				<path class="st13" d="M235.3,849.5H75.7V686.1h132.6c15,0,27.1,12.1,27.1,27.1V849.5z"/>
			</g>
			<path class="st14" d="M550.3,135.3c64.7,0,117.2,52.5,117.2,117.2H433.1C433.1,187.8,485.6,135.3,550.3,135.3z"/>
			<path class="st15" d="M550.3,251.8c64.7,0,117.2,52.5,117.2,117.2H433.1C433.1,304.3,485.6,251.8,550.3,251.8z"/>
			<rect x="78.5" y="269.1" class="st14" width="122.6" height="7.6"/>
			<g class="st8">
				<polygon class="st0" points="86,509.2 122.6,531.4 86,555 				"/>
				<polygon class="st0" points="117.8,509.2 154.3,531.4 117.8,555 				"/>
				<polygon class="st0" points="179.6,509.2 216.2,531.4 179.6,555 				"/>
				<polygon class="st0" points="213.4,509.2 250,531.4 213.4,555 				"/>
			</g>
		</g>
	</g>
	<g>
		<g>
			<path class="st0" d="M91,316.7v17.8h20.6v-17.8h5.6v42.5h-5.6v-19.9H91v19.9h-5.5v-42.5H91z"/>
			<path class="st0" d="M133.3,320.1c0.1,1.9-1.3,3.4-3.5,3.4c-2,0-3.3-1.5-3.3-3.4c0-2,1.5-3.5,3.5-3.5
				C132,316.6,133.3,318.2,133.3,320.1z M127.1,359.2v-30.5h5.6v30.5H127.1z"/>
			<path class="st0" d="M161,321.4h-13v-4.7h31.5v4.7h-13v37.8H161V321.4z"/>
			<path class="st0" d="M183.7,314.4h5.6v19h0.1c0.9-1.6,2.3-3,4-3.9c1.6-0.9,3.6-1.6,5.7-1.6c4.1,0,10.7,2.5,10.7,13v18.1h-5.6
				v-17.5c0-4.9-1.8-9.1-7.1-9.1c-3.6,0-6.4,2.5-7.5,5.5c-0.3,0.8-0.4,1.6-0.4,2.6v18.4h-5.6V314.4z"/>
			<path class="st0" d="M221.8,344.9c0.1,7.5,4.9,10.6,10.5,10.6c4,0,6.4-0.7,8.5-1.6l0.9,4c-2,0.9-5.3,1.9-10.2,1.9
				c-9.4,0-15-6.2-15-15.4S222,328,230.9,328c10,0,12.6,8.8,12.6,14.4c0,1.1-0.1,2-0.2,2.6H221.8z M238.1,341c0.1-3.5-1.5-9-7.7-9
				c-5.6,0-8.1,5.2-8.5,9H238.1z"/>
			<path class="st0" d="M250.4,338.2c0-3.6-0.1-6.7-0.3-9.5h4.9l0.2,6h0.3c1.4-4.1,4.7-6.7,8.5-6.7c0.6,0,1.1,0.1,1.6,0.2v5.2
				c-0.6-0.1-1.1-0.2-1.9-0.2c-3.9,0-6.7,3-7.5,7.1c-0.1,0.8-0.3,1.6-0.3,2.6v16.3h-5.5V338.2z"/>
			<path class="st0" d="M273.5,344.9c0.1,7.5,4.9,10.6,10.5,10.6c4,0,6.4-0.7,8.5-1.6l0.9,4c-2,0.9-5.3,1.9-10.2,1.9
				c-9.4,0-15-6.2-15-15.4s5.4-16.4,14.3-16.4c10,0,12.6,8.8,12.6,14.4c0,1.1-0.1,2-0.2,2.6H273.5z M289.8,341c0.1-3.5-1.5-9-7.7-9
				c-5.6,0-8.1,5.2-8.5,9H289.8z"/>
			<path class="st0" d="M297.7,366.9c1.4-3.7,3.1-10.5,3.8-15.1l6.2-0.6c-1.5,5.4-4.2,12.3-6,15.3L297.7,366.9z"/>
		</g>
		<g>
			<path class="st0" d="M84.6,385h2.1v14.4h6.9v1.8h-9V385z"/>
			<path class="st0" d="M106,395.3c0,4.3-3,6.2-5.8,6.2c-3.1,0-5.6-2.3-5.6-6c0-3.9,2.5-6.2,5.8-6.2
				C103.7,389.3,106,391.8,106,395.3z M96.8,395.4c0,2.5,1.5,4.5,3.5,4.5c2,0,3.5-1.9,3.5-4.5c0-2-1-4.5-3.5-4.5
				C97.9,390.9,96.8,393.2,96.8,395.4z"/>
			<path class="st0" d="M108.7,393.2c0-1.4,0-2.5-0.1-3.6h1.8l0.1,2.3h0.1c0.5-1.6,1.8-2.5,3.2-2.5c0.2,0,0.4,0,0.6,0.1v2
				c-0.2,0-0.4-0.1-0.7-0.1c-1.5,0-2.5,1.1-2.8,2.7c0,0.3-0.1,0.6-0.1,1v6.2h-2.1V393.2z"/>
			<path class="st0" d="M117.5,395.8c0,2.9,1.9,4,4,4c1.5,0,2.4-0.3,3.2-0.6l0.4,1.5c-0.7,0.3-2,0.7-3.9,0.7c-3.6,0-5.7-2.4-5.7-5.9
				c0-3.5,2.1-6.3,5.4-6.3c3.8,0,4.8,3.3,4.8,5.5c0,0.4,0,0.8-0.1,1H117.5z M123.6,394.3c0-1.3-0.6-3.4-2.9-3.4
				c-2.1,0-3.1,2-3.2,3.4H123.6z"/>
			<path class="st0" d="M128.3,392.7c0-1.2,0-2.2-0.1-3.1h1.8l0.1,1.9h0.1c0.6-1.1,1.7-2.1,3.6-2.1c1.6,0,2.8,1,3.3,2.3h0
				c0.4-0.6,0.8-1.2,1.3-1.5c0.7-0.5,1.5-0.8,2.6-0.8c1.5,0,3.8,1,3.8,5v6.8h-2.1v-6.6c0-2.2-0.8-3.6-2.5-3.6
				c-1.2,0-2.1,0.9-2.5,1.9c-0.1,0.3-0.2,0.7-0.2,1.1v7.2h-2.1v-7c0-1.8-0.8-3.2-2.4-3.2c-1.3,0-2.3,1.1-2.6,2.1
				c-0.1,0.3-0.2,0.7-0.2,1v7h-2.1V392.7z"/>
			<path class="st0" d="M155.8,386.3c0,0.7-0.5,1.3-1.3,1.3c-0.7,0-1.3-0.6-1.3-1.3c0-0.7,0.6-1.3,1.3-1.3
				C155.3,385,155.8,385.6,155.8,386.3z M153.4,401.2v-11.6h2.1v11.6H153.4z"/>
			<path class="st0" d="M159,393.4c0-1.5,0-2.7-0.1-3.8h1.9l0.1,2h0c0.9-1.4,2.2-2.3,4.1-2.3c2.8,0,4.9,2.4,4.9,5.9
				c0,4.2-2.5,6.2-5.3,6.2c-1.5,0-2.9-0.7-3.6-1.8h0v6.3H159V393.4z M161.1,396.5c0,0.3,0,0.6,0.1,0.9c0.4,1.5,1.7,2.5,3.2,2.5
				c2.2,0,3.5-1.8,3.5-4.5c0-2.3-1.2-4.3-3.5-4.3c-1.4,0-2.8,1-3.2,2.6c-0.1,0.3-0.1,0.6-0.1,0.9V396.5z"/>
			<path class="st0" d="M172.4,399.1c0.6,0.4,1.7,0.8,2.8,0.8c1.5,0,2.3-0.8,2.3-1.7c0-1-0.6-1.6-2.2-2.1c-2.1-0.7-3.1-1.9-3.1-3.3
				c0-1.9,1.5-3.4,4-3.4c1.2,0,2.2,0.3,2.9,0.7l-0.5,1.5c-0.5-0.3-1.3-0.7-2.4-0.7c-1.2,0-1.9,0.7-1.9,1.6c0,1,0.7,1.4,2.2,2
				c2,0.8,3,1.8,3,3.5c0,2-1.6,3.5-4.3,3.5c-1.3,0-2.4-0.3-3.3-0.8L172.4,399.1z"/>
			<path class="st0" d="M191.9,398c0,1.2,0,2.3,0.1,3.2h-1.9l-0.1-1.9h0c-0.6,0.9-1.8,2.2-3.8,2.2c-1.8,0-4-1-4-5.1v-6.8h2.1v6.4
				c0,2.2,0.7,3.7,2.6,3.7c1.4,0,2.4-1,2.8-1.9c0.1-0.3,0.2-0.7,0.2-1.1v-7.1h2.1V398z"/>
			<path class="st0" d="M195.4,392.7c0-1.2,0-2.2-0.1-3.1h1.8l0.1,1.9h0.1c0.6-1.1,1.7-2.1,3.6-2.1c1.6,0,2.8,1,3.3,2.3h0
				c0.4-0.6,0.8-1.2,1.3-1.5c0.7-0.5,1.5-0.8,2.6-0.8c1.5,0,3.8,1,3.8,5v6.8h-2.1v-6.6c0-2.2-0.8-3.6-2.5-3.6
				c-1.2,0-2.1,0.9-2.5,1.9c-0.1,0.3-0.2,0.7-0.2,1.1v7.2h-2.1v-7c0-1.8-0.8-3.2-2.4-3.2c-1.3,0-2.3,1.1-2.6,2.1
				c-0.1,0.3-0.2,0.7-0.2,1v7h-2.1V392.7z"/>
			<path class="st0" d="M230.5,384.2v14c0,1,0,2.2,0.1,3h-1.9l-0.1-2h0c-0.6,1.3-2.1,2.3-4,2.3c-2.8,0-5-2.4-5-5.9
				c0-3.9,2.4-6.2,5.2-6.2c1.8,0,3,0.8,3.5,1.8h0v-6.9H230.5z M228.4,394.3c0-0.3,0-0.6-0.1-0.9c-0.3-1.3-1.5-2.4-3-2.4
				c-2.2,0-3.5,1.9-3.5,4.5c0,2.4,1.2,4.3,3.4,4.3c1.4,0,2.7-0.9,3.1-2.5c0.1-0.3,0.1-0.6,0.1-0.9V394.3z"/>
			<path class="st0" d="M244.6,395.3c0,4.3-3,6.2-5.8,6.2c-3.1,0-5.6-2.3-5.6-6c0-3.9,2.5-6.2,5.8-6.2
				C242.3,389.3,244.6,391.8,244.6,395.3z M235.3,395.4c0,2.5,1.5,4.5,3.5,4.5c2,0,3.5-1.9,3.5-4.5c0-2-1-4.5-3.5-4.5
				C236.4,390.9,235.3,393.2,235.3,395.4z"/>
			<path class="st0" d="M247.2,384.2h2.1v17h-2.1V384.2z"/>
			<path class="st0" d="M263.4,395.3c0,4.3-3,6.2-5.8,6.2c-3.1,0-5.6-2.3-5.6-6c0-3.9,2.5-6.2,5.8-6.2
				C261.1,389.3,263.4,391.8,263.4,395.3z M254.2,395.4c0,2.5,1.5,4.5,3.5,4.5c2,0,3.5-1.9,3.5-4.5c0-2-1-4.5-3.5-4.5
				C255.3,390.9,254.2,393.2,254.2,395.4z"/>
			<path class="st0" d="M266.1,393.2c0-1.4,0-2.5-0.1-3.6h1.8l0.1,2.3h0.1c0.5-1.6,1.8-2.5,3.2-2.5c0.2,0,0.4,0,0.6,0.1v2
				c-0.2,0-0.4-0.1-0.7-0.1c-1.5,0-2.5,1.1-2.8,2.7c0,0.3-0.1,0.6-0.1,1v6.2h-2.1V393.2z"/>
			<path class="st0" d="M278.7,399.1c0.6,0.4,1.7,0.8,2.8,0.8c1.5,0,2.3-0.8,2.3-1.7c0-1-0.6-1.6-2.2-2.1c-2.1-0.7-3.1-1.9-3.1-3.3
				c0-1.9,1.5-3.4,4-3.4c1.2,0,2.2,0.3,2.9,0.7l-0.5,1.5c-0.5-0.3-1.3-0.7-2.4-0.7c-1.2,0-1.9,0.7-1.9,1.6c0,1,0.7,1.4,2.2,2
				c2,0.8,3,1.8,3,3.5c0,2-1.6,3.5-4.3,3.5c-1.3,0-2.4-0.3-3.3-0.8L278.7,399.1z"/>
			<path class="st0" d="M290.9,386.3c0,0.7-0.5,1.3-1.3,1.3c-0.7,0-1.3-0.6-1.3-1.3c0-0.7,0.6-1.3,1.3-1.3
				C290.3,385,290.9,385.6,290.9,386.3z M288.5,401.2v-11.6h2.1v11.6H288.5z"/>
			<path class="st0" d="M296.7,386.3v3.3h3v1.6h-3v6.3c0,1.4,0.4,2.3,1.6,2.3c0.6,0,1-0.1,1.2-0.1l0.1,1.6c-0.4,0.2-1.1,0.3-1.9,0.3
				c-1,0-1.8-0.3-2.3-0.9c-0.6-0.6-0.8-1.7-0.8-3v-6.3h-1.8v-1.6h1.8v-2.8L296.7,386.3z"/>
			<path class="st0" d="M313.6,401.2l-0.2-1.5h-0.1c-0.6,0.9-1.9,1.7-3.6,1.7c-2.3,0-3.5-1.7-3.5-3.3c0-2.8,2.5-4.3,7-4.3v-0.2
				c0-1-0.3-2.7-2.6-2.7c-1.1,0-2.2,0.3-3,0.9l-0.5-1.4c1-0.6,2.4-1,3.8-1c3.6,0,4.4,2.4,4.4,4.8v4.3c0,1,0,2,0.2,2.8H313.6z
				 M313.3,395.3c-2.3,0-4.9,0.4-4.9,2.6c0,1.4,0.9,2,2,2c1.5,0,2.5-1,2.8-1.9c0.1-0.2,0.1-0.5,0.1-0.7V395.3z"/>
			<path class="st0" d="M318.7,392.7c0-1.2,0-2.2-0.1-3.1h1.8l0.1,1.9h0.1c0.6-1.1,1.7-2.1,3.6-2.1c1.6,0,2.8,1,3.3,2.3h0
				c0.4-0.6,0.8-1.2,1.3-1.5c0.7-0.5,1.5-0.8,2.6-0.8c1.5,0,3.8,1,3.8,5v6.8h-2.1v-6.6c0-2.2-0.8-3.6-2.5-3.6
				c-1.2,0-2.1,0.9-2.5,1.9c-0.1,0.3-0.2,0.7-0.2,1.1v7.2H326v-7c0-1.8-0.8-3.2-2.4-3.2c-1.3,0-2.3,1.1-2.6,2.1
				c-0.1,0.3-0.2,0.7-0.2,1v7h-2.1V392.7z"/>
			<path class="st0" d="M339.9,395.8c0,2.9,1.9,4,4,4c1.5,0,2.4-0.3,3.2-0.6l0.4,1.5c-0.7,0.3-2,0.7-3.9,0.7c-3.6,0-5.7-2.4-5.7-5.9
				c0-3.5,2.1-6.3,5.4-6.3c3.8,0,4.8,3.3,4.8,5.5c0,0.4,0,0.8-0.1,1H339.9z M346.1,394.3c0-1.3-0.6-3.4-2.9-3.4
				c-2.1,0-3.1,2-3.2,3.4H346.1z"/>
			<path class="st0" d="M353.3,386.3v3.3h3v1.6h-3v6.3c0,1.4,0.4,2.3,1.6,2.3c0.6,0,1-0.1,1.2-0.1l0.1,1.6c-0.4,0.2-1.1,0.3-1.9,0.3
				c-1,0-1.8-0.3-2.3-0.9c-0.6-0.6-0.8-1.7-0.8-3v-6.3h-1.8v-1.6h1.8v-2.8L353.3,386.3z"/>
			<path class="st0" d="M357.3,404.2c0.5-1.4,1.2-4,1.4-5.7l2.4-0.2c-0.6,2-1.6,4.7-2.3,5.8L357.3,404.2z"/>
			<path class="st0" d="M92.8,423.4c-0.6,0.3-1.8,0.7-3.3,0.7c-3.5,0-5.8-2.4-5.8-5.9c0-3.6,2.4-6.2,6.2-6.2c1.2,0,2.4,0.3,2.9,0.6
				l-0.5,1.6c-0.5-0.3-1.3-0.6-2.4-0.6c-2.7,0-4.1,2-4.1,4.4c0,2.7,1.7,4.3,4,4.3c1.2,0,2-0.3,2.6-0.6L92.8,423.4z"/>
			<path class="st0" d="M105.6,418c0,4.3-3,6.2-5.8,6.2c-3.1,0-5.6-2.3-5.6-6c0-3.9,2.5-6.2,5.8-6.2
				C103.4,412,105.6,414.4,105.6,418z M96.4,418.1c0,2.5,1.5,4.5,3.5,4.5c2,0,3.5-1.9,3.5-4.5c0-2-1-4.5-3.5-4.5
				C97.5,413.6,96.4,415.9,96.4,418.1z"/>
			<path class="st0" d="M108.3,415.4c0-1.2,0-2.2-0.1-3.1h1.9l0.1,1.9h0c0.6-1.1,1.9-2.2,3.8-2.2c1.6,0,4.1,1,4.1,4.9v6.9h-2.1v-6.7
				c0-1.9-0.7-3.4-2.7-3.4c-1.4,0-2.5,1-2.8,2.2c-0.1,0.3-0.1,0.6-0.1,1v7h-2.1V415.4z"/>
			<path class="st0" d="M121.3,421.7c0.6,0.4,1.7,0.8,2.8,0.8c1.5,0,2.3-0.8,2.3-1.7c0-1-0.6-1.6-2.2-2.1c-2.1-0.7-3.1-1.9-3.1-3.3
				c0-1.9,1.5-3.4,4-3.4c1.2,0,2.2,0.3,2.9,0.7l-0.5,1.5c-0.5-0.3-1.3-0.7-2.4-0.7c-1.2,0-1.9,0.7-1.9,1.6c0,1,0.7,1.4,2.2,2
				c2,0.8,3,1.8,3,3.5c0,2-1.6,3.5-4.3,3.5c-1.3,0-2.4-0.3-3.3-0.8L121.3,421.7z"/>
			<path class="st0" d="M132.3,418.4c0,2.9,1.9,4,4,4c1.5,0,2.4-0.3,3.2-0.6l0.4,1.5c-0.7,0.3-2,0.7-3.9,0.7c-3.6,0-5.7-2.4-5.7-5.9
				s2.1-6.3,5.4-6.3c3.8,0,4.8,3.3,4.8,5.5c0,0.4,0,0.8-0.1,1H132.3z M138.5,416.9c0-1.3-0.6-3.4-2.9-3.4c-2.1,0-3.1,2-3.2,3.4
				H138.5z"/>
			<path class="st0" d="M151.4,423.4c-0.6,0.3-1.8,0.7-3.3,0.7c-3.5,0-5.8-2.4-5.8-5.9c0-3.6,2.4-6.2,6.2-6.2c1.2,0,2.3,0.3,2.9,0.6
				l-0.5,1.6c-0.5-0.3-1.3-0.6-2.4-0.6c-2.7,0-4.1,2-4.1,4.4c0,2.7,1.7,4.3,4,4.3c1.2,0,2-0.3,2.6-0.6L151.4,423.4z"/>
			<path class="st0" d="M156.7,408.9v3.3h3v1.6h-3v6.3c0,1.4,0.4,2.3,1.6,2.3c0.6,0,1-0.1,1.2-0.1l0.1,1.6c-0.4,0.2-1.1,0.3-1.9,0.3
				c-1,0-1.8-0.3-2.3-0.9c-0.6-0.6-0.8-1.7-0.8-3v-6.3h-1.8v-1.6h1.8v-2.8L156.7,408.9z"/>
			<path class="st0" d="M163.2,418.4c0,2.9,1.9,4,4,4c1.5,0,2.4-0.3,3.2-0.6l0.4,1.5c-0.7,0.3-2,0.7-3.9,0.7c-3.6,0-5.7-2.4-5.7-5.9
				s2.1-6.3,5.4-6.3c3.8,0,4.8,3.3,4.8,5.5c0,0.4,0,0.8-0.1,1H163.2z M169.4,416.9c0-1.3-0.6-3.4-2.9-3.4c-2.1,0-3.1,2-3.2,3.4
				H169.4z"/>
			<path class="st0" d="M176.6,408.9v3.3h3v1.6h-3v6.3c0,1.4,0.4,2.3,1.6,2.3c0.6,0,1-0.1,1.2-0.1l0.1,1.6c-0.4,0.2-1.1,0.3-1.9,0.3
				c-1,0-1.8-0.3-2.3-0.9c-0.6-0.6-0.8-1.7-0.8-3v-6.3h-1.8v-1.6h1.8v-2.8L176.6,408.9z"/>
			<path class="st0" d="M191.7,420.7c0,1.2,0,2.3,0.1,3.2h-1.9l-0.1-1.9h0c-0.6,0.9-1.8,2.2-3.8,2.2c-1.8,0-4-1-4-5.1v-6.8h2.1v6.4
				c0,2.2,0.7,3.7,2.6,3.7c1.4,0,2.4-1,2.8-1.9c0.1-0.3,0.2-0.7,0.2-1.1v-7.1h2.1V420.7z"/>
			<path class="st0" d="M196.4,418.4c0,2.9,1.9,4,4,4c1.5,0,2.4-0.3,3.2-0.6l0.4,1.5c-0.7,0.3-2,0.7-3.9,0.7c-3.6,0-5.7-2.4-5.7-5.9
				s2.1-6.3,5.4-6.3c3.8,0,4.8,3.3,4.8,5.5c0,0.4,0,0.8-0.1,1H196.4z M202.6,416.9c0-1.3-0.6-3.4-2.9-3.4c-2.1,0-3.1,2-3.2,3.4
				H202.6z"/>
			<path class="st0" d="M207.2,415.9c0-1.4,0-2.5-0.1-3.6h1.8l0.1,2.3h0.1c0.5-1.6,1.8-2.5,3.2-2.5c0.2,0,0.4,0,0.6,0.1v2
				c-0.2,0-0.4-0.1-0.7-0.1c-1.5,0-2.5,1.1-2.8,2.7c0,0.3-0.1,0.6-0.1,1v6.2h-2.1V415.9z"/>
			<path class="st0" d="M226.6,423.9l-0.2-1.5h-0.1c-0.6,0.9-1.9,1.7-3.6,1.7c-2.3,0-3.5-1.7-3.5-3.3c0-2.8,2.5-4.3,7-4.3v-0.2
				c0-1-0.3-2.7-2.6-2.7c-1.1,0-2.2,0.3-3,0.9l-0.5-1.4c1-0.6,2.4-1,3.8-1c3.6,0,4.4,2.4,4.4,4.8v4.3c0,1,0,2,0.2,2.8H226.6z
				 M226.3,417.9c-2.3,0-4.9,0.4-4.9,2.6c0,1.4,0.9,2,2,2c1.5,0,2.5-1,2.8-1.9c0.1-0.2,0.1-0.5,0.1-0.7V417.9z"/>
			<path class="st0" d="M241.7,406.8v14c0,1,0,2.2,0.1,3H240l-0.1-2h0c-0.6,1.3-2.1,2.3-4,2.3c-2.8,0-5-2.4-5-5.9
				c0-3.9,2.4-6.2,5.2-6.2c1.8,0,3,0.8,3.5,1.8h0v-6.9H241.7z M239.6,417c0-0.3,0-0.6-0.1-0.9c-0.3-1.3-1.5-2.4-3-2.4
				c-2.2,0-3.5,1.9-3.5,4.5c0,2.4,1.2,4.3,3.4,4.3c1.4,0,2.7-0.9,3.1-2.5c0.1-0.3,0.1-0.6,0.1-0.9V417z"/>
			<path class="st0" d="M247.6,409c0,0.7-0.5,1.3-1.3,1.3c-0.7,0-1.3-0.6-1.3-1.3c0-0.7,0.6-1.3,1.3-1.3
				C247.1,407.7,247.6,408.2,247.6,409z M245.3,423.9v-11.6h2.1v11.6H245.3z"/>
			<path class="st0" d="M250.9,416c0-1.5,0-2.7-0.1-3.8h1.9l0.1,2h0c0.9-1.4,2.2-2.3,4.1-2.3c2.8,0,4.9,2.4,4.9,5.9
				c0,4.2-2.5,6.2-5.3,6.2c-1.5,0-2.9-0.7-3.6-1.8h0v6.3h-2.1V416z M253,419.1c0,0.3,0,0.6,0.1,0.9c0.4,1.5,1.7,2.5,3.2,2.5
				c2.2,0,3.5-1.8,3.5-4.5c0-2.3-1.2-4.3-3.5-4.3c-1.4,0-2.8,1-3.2,2.6c-0.1,0.3-0.1,0.6-0.1,0.9V419.1z"/>
			<path class="st0" d="M266.9,409c0,0.7-0.5,1.3-1.3,1.3c-0.7,0-1.3-0.6-1.3-1.3c0-0.7,0.6-1.3,1.3-1.3
				C266.4,407.7,266.9,408.2,266.9,409z M264.5,423.9v-11.6h2.1v11.6H264.5z"/>
			<path class="st0" d="M269.9,421.7c0.6,0.4,1.7,0.8,2.8,0.8c1.5,0,2.3-0.8,2.3-1.7c0-1-0.6-1.6-2.2-2.1c-2.1-0.7-3.1-1.9-3.1-3.3
				c0-1.9,1.5-3.4,4-3.4c1.2,0,2.2,0.3,2.9,0.7l-0.5,1.5c-0.5-0.3-1.3-0.7-2.4-0.7c-1.2,0-1.9,0.7-1.9,1.6c0,1,0.7,1.4,2.2,2
				c2,0.8,3,1.8,3,3.5c0,2-1.6,3.5-4.3,3.5c-1.3,0-2.4-0.3-3.3-0.8L269.9,421.7z"/>
			<path class="st0" d="M287.9,423.4c-0.6,0.3-1.8,0.7-3.3,0.7c-3.5,0-5.8-2.4-5.8-5.9c0-3.6,2.4-6.2,6.2-6.2c1.2,0,2.3,0.3,2.9,0.6
				l-0.5,1.6c-0.5-0.3-1.3-0.6-2.4-0.6c-2.7,0-4.1,2-4.1,4.4c0,2.7,1.7,4.3,4,4.3c1.2,0,2-0.3,2.6-0.6L287.9,423.4z"/>
			<path class="st0" d="M292.8,409c0,0.7-0.5,1.3-1.3,1.3c-0.7,0-1.3-0.6-1.3-1.3c0-0.7,0.6-1.3,1.3-1.3
				C292.2,407.7,292.8,408.2,292.8,409z M290.4,423.9v-11.6h2.1v11.6H290.4z"/>
			<path class="st0" d="M296,415.4c0-1.2,0-2.2-0.1-3.1h1.9l0.1,1.9h0c0.6-1.1,1.9-2.2,3.8-2.2c1.6,0,4.1,1,4.1,4.9v6.9h-2.1v-6.7
				c0-1.9-0.7-3.4-2.7-3.4c-1.4,0-2.5,1-2.8,2.2c-0.1,0.3-0.1,0.6-0.1,1v7H296V415.4z"/>
			<path class="st0" d="M319.3,412.3c0,0.8-0.1,1.8-0.1,3.2v6.7c0,2.7-0.5,4.3-1.7,5.3c-1.1,1.1-2.8,1.4-4.2,1.4
				c-1.4,0-2.9-0.3-3.9-1l0.5-1.6c0.8,0.5,2,0.9,3.4,0.9c2.2,0,3.7-1.1,3.7-4.1v-1.3h0c-0.6,1.1-1.9,1.9-3.7,1.9
				c-2.9,0-4.9-2.4-4.9-5.7c0-3.9,2.6-6.2,5.2-6.2c2,0,3.1,1.1,3.6,2h0l0.1-1.8H319.3z M317.2,416.8c0-0.4,0-0.7-0.1-1
				c-0.4-1.2-1.4-2.2-3-2.2c-2,0-3.5,1.7-3.5,4.4c0,2.3,1.2,4.2,3.4,4.2c1.3,0,2.5-0.8,2.9-2.2c0.1-0.4,0.2-0.8,0.2-1.1V416.8z"/>
			<path class="st0" d="M329,418.4c0,2.9,1.9,4,4,4c1.5,0,2.4-0.3,3.2-0.6l0.4,1.5c-0.7,0.3-2,0.7-3.9,0.7c-3.6,0-5.7-2.4-5.7-5.9
				s2.1-6.3,5.4-6.3c3.8,0,4.8,3.3,4.8,5.5c0,0.4,0,0.8-0.1,1H329z M335.2,416.9c0-1.3-0.6-3.4-2.9-3.4c-2.1,0-3.1,2-3.2,3.4H335.2z
				"/>
			<path class="st0" d="M339.9,406.8h2.1v17h-2.1V406.8z"/>
			<path class="st0" d="M347.9,409c0,0.7-0.5,1.3-1.3,1.3c-0.7,0-1.3-0.6-1.3-1.3c0-0.7,0.6-1.3,1.3-1.3
				C347.4,407.7,347.9,408.2,347.9,409z M345.5,423.9v-11.6h2.1v11.6H345.5z"/>
			<path class="st0" d="M353.7,408.9v3.3h3v1.6h-3v6.3c0,1.4,0.4,2.3,1.6,2.3c0.6,0,1-0.1,1.2-0.1l0.1,1.6c-0.4,0.2-1.1,0.3-1.9,0.3
				c-1,0-1.8-0.3-2.3-0.9c-0.6-0.6-0.8-1.7-0.8-3v-6.3h-1.8v-1.6h1.8v-2.8L353.7,408.9z"/>
			<path class="st0" d="M357.7,426.8c0.5-1.4,1.2-4,1.4-5.7l2.4-0.2c-0.6,2-1.6,4.7-2.3,5.8L357.7,426.8z"/>
			<path class="st0" d="M368.8,421.7c0.6,0.4,1.7,0.8,2.8,0.8c1.5,0,2.3-0.8,2.3-1.7c0-1-0.6-1.6-2.2-2.1c-2.1-0.7-3.1-1.9-3.1-3.3
				c0-1.9,1.5-3.4,4-3.4c1.2,0,2.2,0.3,2.9,0.7l-0.5,1.5c-0.5-0.3-1.3-0.7-2.4-0.7c-1.2,0-1.9,0.7-1.9,1.6c0,1,0.7,1.4,2.2,2
				c2,0.8,3,1.8,3,3.5c0,2-1.6,3.5-4.3,3.5c-1.3,0-2.4-0.3-3.3-0.8L368.8,421.7z"/>
			<path class="st0" d="M379.8,418.4c0,2.9,1.9,4,4,4c1.5,0,2.4-0.3,3.2-0.6l0.4,1.5c-0.7,0.3-2,0.7-3.9,0.7c-3.6,0-5.7-2.4-5.7-5.9
				s2.1-6.3,5.4-6.3c3.8,0,4.8,3.3,4.8,5.5c0,0.4,0,0.8-0.1,1H379.8z M385.9,416.9c0-1.3-0.6-3.4-2.9-3.4c-2.1,0-3.1,2-3.2,3.4
				H385.9z"/>
			<path class="st0" d="M400.6,406.8v14c0,1,0,2.2,0.1,3h-1.9l-0.1-2h0c-0.6,1.3-2.1,2.3-4,2.3c-2.8,0-5-2.4-5-5.9
				c0-3.9,2.4-6.2,5.2-6.2c1.8,0,3,0.8,3.5,1.8h0v-6.9H400.6z M398.5,417c0-0.3,0-0.6-0.1-0.9c-0.3-1.3-1.5-2.4-3-2.4
				c-2.2,0-3.5,1.9-3.5,4.5c0,2.4,1.2,4.3,3.4,4.3c1.4,0,2.7-0.9,3.1-2.5c0.1-0.3,0.1-0.6,0.1-0.9V417z"/>
			<path class="st0" d="M419.3,406.8v14c0,1,0,2.2,0.1,3h-1.9l-0.1-2h0c-0.6,1.3-2.1,2.3-4,2.3c-2.8,0-5-2.4-5-5.9
				c0-3.9,2.4-6.2,5.2-6.2c1.8,0,3,0.8,3.5,1.8h0v-6.9H419.3z M417.1,417c0-0.3,0-0.6-0.1-0.9c-0.3-1.3-1.5-2.4-3-2.4
				c-2.2,0-3.5,1.9-3.5,4.5c0,2.4,1.2,4.3,3.4,4.3c1.4,0,2.7-0.9,3.1-2.5c0.1-0.3,0.1-0.6,0.1-0.9V417z"/>
			<path class="st0" d="M425.1,409c0,0.7-0.5,1.3-1.3,1.3c-0.7,0-1.3-0.6-1.3-1.3c0-0.7,0.6-1.3,1.3-1.3
				C424.6,407.7,425.1,408.2,425.1,409z M422.8,423.9v-11.6h2.1v11.6H422.8z"/>
			<path class="st0" d="M434.8,423.9l-0.2-1.5h-0.1c-0.6,0.9-1.9,1.7-3.6,1.7c-2.3,0-3.5-1.7-3.5-3.3c0-2.8,2.5-4.3,7-4.3v-0.2
				c0-1-0.3-2.7-2.6-2.7c-1.1,0-2.2,0.3-3,0.9l-0.5-1.4c1-0.6,2.3-1,3.8-1c3.6,0,4.4,2.4,4.4,4.8v4.3c0,1,0,2,0.2,2.8H434.8z
				 M434.5,417.9c-2.3,0-4.9,0.4-4.9,2.6c0,1.4,0.9,2,2,2c1.5,0,2.5-1,2.8-1.9c0.1-0.2,0.1-0.5,0.1-0.7V417.9z"/>
			<path class="st0" d="M439.9,415.4c0-1.2,0-2.2-0.1-3.1h1.8l0.1,1.9h0.1c0.6-1.1,1.7-2.1,3.6-2.1c1.6,0,2.8,1,3.3,2.3h0
				c0.4-0.6,0.8-1.2,1.3-1.5c0.7-0.5,1.5-0.8,2.6-0.8c1.5,0,3.8,1,3.8,5v6.8h-2.1v-6.6c0-2.2-0.8-3.6-2.5-3.6
				c-1.2,0-2.1,0.9-2.5,1.9c-0.1,0.3-0.2,0.7-0.2,1.1v7.2h-2.1v-7c0-1.8-0.8-3.2-2.4-3.2c-1.3,0-2.3,1.1-2.6,2.1
				c-0.1,0.3-0.2,0.7-0.2,1v7h-2.1V415.4z"/>
			<path class="st0" d="M84.5,438c0-1.2,0-2.2-0.1-3.1h1.9l0.1,1.9h0c0.6-1.1,1.9-2.2,3.8-2.2c1.6,0,4.1,1,4.1,4.9v6.9h-2.1v-6.7
				c0-1.9-0.7-3.4-2.7-3.4c-1.4,0-2.5,1-2.8,2.2c-0.1,0.3-0.1,0.6-0.1,1v7h-2.1V438z"/>
			<path class="st0" d="M108.3,440.6c0,4.3-3,6.2-5.8,6.2c-3.1,0-5.6-2.3-5.6-6c0-3.9,2.5-6.2,5.8-6.2
				C106.1,434.6,108.3,437.1,108.3,440.6z M99.1,440.7c0,2.5,1.5,4.5,3.5,4.5c2,0,3.5-1.9,3.5-4.5c0-2-1-4.5-3.5-4.5
				C100.2,436.2,99.1,438.5,99.1,440.7z"/>
			<path class="st0" d="M111,438c0-1.2,0-2.2-0.1-3.1h1.9l0.1,1.9h0c0.6-1.1,1.9-2.2,3.8-2.2c1.6,0,4.1,1,4.1,4.9v6.9h-2.1v-6.7
				c0-1.9-0.7-3.4-2.7-3.4c-1.4,0-2.5,1-2.8,2.2c-0.1,0.3-0.1,0.6-0.1,1v7H111V438z"/>
			<path class="st0" d="M134,443.3c0,1.2,0,2.3,0.1,3.2h-1.9l-0.1-1.9h0c-0.6,0.9-1.8,2.2-3.8,2.2c-1.8,0-4-1-4-5.1v-6.8h2.1v6.4
				c0,2.2,0.7,3.7,2.6,3.7c1.4,0,2.4-1,2.8-1.9c0.1-0.3,0.2-0.7,0.2-1.1v-7.1h2.1V443.3z"/>
			<path class="st0" d="M137.5,438c0-1.2,0-2.2-0.1-3.1h1.8l0.1,1.9h0.1c0.6-1.1,1.7-2.1,3.6-2.1c1.6,0,2.8,1,3.3,2.3h0
				c0.4-0.6,0.8-1.2,1.3-1.5c0.7-0.5,1.5-0.8,2.6-0.8c1.5,0,3.8,1,3.8,5v6.8h-2.1v-6.6c0-2.2-0.8-3.6-2.5-3.6
				c-1.2,0-2.1,0.9-2.5,1.9c-0.1,0.3-0.2,0.7-0.2,1.1v7.2h-2.1v-7c0-1.8-0.8-3.2-2.4-3.2c-1.3,0-2.3,1.1-2.6,2.1
				c-0.1,0.3-0.2,0.7-0.2,1v7h-2.1V438z"/>
			<path class="st0" d="M157.6,438c0-1.2,0-2.2-0.1-3.1h1.8l0.1,1.9h0.1c0.6-1.1,1.7-2.1,3.6-2.1c1.6,0,2.8,1,3.3,2.3h0
				c0.4-0.6,0.8-1.2,1.3-1.5c0.7-0.5,1.5-0.8,2.6-0.8c1.5,0,3.8,1,3.8,5v6.8h-2.1v-6.6c0-2.2-0.8-3.6-2.5-3.6
				c-1.2,0-2.1,0.9-2.5,1.9c-0.1,0.3-0.2,0.7-0.2,1.1v7.2h-2.1v-7c0-1.8-0.8-3.2-2.4-3.2c-1.3,0-2.3,1.1-2.6,2.1
				c-0.1,0.3-0.2,0.7-0.2,1v7h-2.1V438z"/>
			<path class="st0" d="M178,434.9l2.5,6.9c0.3,0.8,0.6,1.7,0.7,2.4h0c0.2-0.7,0.5-1.6,0.7-2.4l2.3-6.8h2.2l-3.2,8.3
				c-1.5,4-2.5,6-4,7.3c-1,0.9-2.1,1.3-2.6,1.4l-0.5-1.8c0.5-0.2,1.2-0.5,1.8-1c0.6-0.5,1.3-1.3,1.8-2.4c0.1-0.2,0.2-0.4,0.2-0.5
				c0-0.1,0-0.3-0.1-0.6l-4.3-10.7H178z"/>
			<path class="st0" d="M193.7,438c0-1.2,0-2.2-0.1-3.1h1.9l0.1,1.9h0c0.6-1.1,1.9-2.2,3.8-2.2c1.6,0,4.1,1,4.1,4.9v6.9h-2.1v-6.7
				c0-1.9-0.7-3.4-2.7-3.4c-1.4,0-2.5,1-2.8,2.2c-0.1,0.3-0.1,0.6-0.1,1v7h-2.1V438z"/>
			<path class="st0" d="M209.3,431.6c0,0.7-0.5,1.3-1.3,1.3c-0.7,0-1.3-0.6-1.3-1.3c0-0.7,0.6-1.3,1.3-1.3
				C208.8,430.3,209.3,430.9,209.3,431.6z M207,446.5v-11.6h2.1v11.6H207z"/>
			<path class="st0" d="M212.5,446.5c0-0.8,0.1-2,0.1-3v-14h2.1v7.3h0c0.7-1.3,2.1-2.1,4-2.1c2.9,0,4.9,2.4,4.9,5.9
				c0,4.1-2.6,6.2-5.2,6.2c-1.7,0-3-0.6-3.9-2.2h-0.1l-0.1,1.9H212.5z M214.7,441.9c0,0.3,0,0.5,0.1,0.8c0.4,1.5,1.6,2.5,3.2,2.5
				c2.2,0,3.5-1.8,3.5-4.5c0-2.3-1.2-4.3-3.5-4.3c-1.4,0-2.8,1-3.2,2.6c0,0.2-0.1,0.5-0.1,0.9V441.9z"/>
			<path class="st0" d="M226.3,429.5h2.1v7.2h0c0.3-0.6,0.9-1.1,1.5-1.5c0.6-0.4,1.4-0.6,2.2-0.6c1.6,0,4.1,1,4.1,5v6.9H234v-6.7
				c0-1.9-0.7-3.5-2.7-3.5c-1.4,0-2.4,1-2.8,2.1c-0.1,0.3-0.1,0.6-0.1,1v7h-2.1V429.5z"/>
			<path class="st0" d="M245.8,441.1c0,2.9,1.9,4,4,4c1.5,0,2.4-0.3,3.2-0.6l0.4,1.5c-0.7,0.3-2,0.7-3.9,0.7c-3.6,0-5.7-2.4-5.7-5.9
				s2.1-6.3,5.4-6.3c3.8,0,4.8,3.3,4.8,5.5c0,0.4,0,0.8-0.1,1H245.8z M252,439.6c0-1.3-0.6-3.4-2.9-3.4c-2.1,0-3.1,2-3.2,3.4H252z"
				/>
			<path class="st0" d="M266.4,443.3c0,1.2,0,2.3,0.1,3.2h-1.9l-0.1-1.9h0c-0.6,0.9-1.8,2.2-3.8,2.2c-1.8,0-4-1-4-5.1v-6.8h2.1v6.4
				c0,2.2,0.7,3.7,2.6,3.7c1.4,0,2.4-1,2.8-1.9c0.1-0.3,0.2-0.7,0.2-1.1v-7.1h2.1V443.3z"/>
			<path class="st0" d="M272.3,431.6c0,0.7-0.5,1.3-1.3,1.3c-0.7,0-1.3-0.6-1.3-1.3c0-0.7,0.6-1.3,1.3-1.3
				C271.8,430.3,272.3,430.9,272.3,431.6z M269.9,446.5v-11.6h2.1v11.6H269.9z"/>
			<path class="st0" d="M275.2,444.4c0.6,0.4,1.7,0.8,2.8,0.8c1.5,0,2.3-0.8,2.3-1.7c0-1-0.6-1.6-2.2-2.1c-2.1-0.7-3.1-1.9-3.1-3.3
				c0-1.9,1.5-3.4,4-3.4c1.2,0,2.2,0.3,2.9,0.7l-0.5,1.5c-0.5-0.3-1.3-0.7-2.4-0.7c-1.2,0-1.9,0.7-1.9,1.6c0,1,0.7,1.4,2.2,2
				c2,0.8,3,1.8,3,3.5c0,2-1.6,3.5-4.3,3.5c-1.3,0-2.4-0.3-3.3-0.8L275.2,444.4z"/>
			<path class="st0" d="M285,438c0-1.2,0-2.2-0.1-3.1h1.8l0.1,1.9h0.1c0.6-1.1,1.7-2.1,3.6-2.1c1.6,0,2.8,1,3.3,2.3h0
				c0.4-0.6,0.8-1.2,1.3-1.5c0.7-0.5,1.5-0.8,2.6-0.8c1.5,0,3.8,1,3.8,5v6.8h-2.1v-6.6c0-2.2-0.8-3.6-2.5-3.6
				c-1.2,0-2.1,0.9-2.5,1.9c-0.1,0.3-0.2,0.7-0.2,1.1v7.2h-2.1v-7c0-1.8-0.8-3.2-2.4-3.2c-1.3,0-2.3,1.1-2.6,2.1
				c-0.1,0.3-0.2,0.7-0.2,1v7H285V438z"/>
			<path class="st0" d="M315.5,440.6c0,4.3-3,6.2-5.8,6.2c-3.1,0-5.6-2.3-5.6-6c0-3.9,2.5-6.2,5.8-6.2
				C313.3,434.6,315.5,437.1,315.5,440.6z M306.3,440.7c0,2.5,1.5,4.5,3.5,4.5c2,0,3.5-1.9,3.5-4.5c0-2-1-4.5-3.5-4.5
				C307.4,436.2,306.3,438.5,306.3,440.7z"/>
			<path class="st0" d="M328.2,429.5v14c0,1,0,2.2,0.1,3h-1.9l-0.1-2h0c-0.6,1.3-2.1,2.3-4,2.3c-2.8,0-5-2.4-5-5.9
				c0-3.9,2.4-6.2,5.2-6.2c1.8,0,3,0.8,3.5,1.8h0v-6.9H328.2z M326.1,439.6c0-0.3,0-0.6-0.1-0.9c-0.3-1.3-1.5-2.4-3-2.4
				c-2.2,0-3.5,1.9-3.5,4.5c0,2.4,1.2,4.3,3.4,4.3c1.4,0,2.7-0.9,3.1-2.5c0.1-0.3,0.1-0.6,0.1-0.9V439.6z"/>
			<path class="st0" d="M339.4,431.6v3.3h3v1.6h-3v6.3c0,1.4,0.4,2.3,1.6,2.3c0.6,0,1-0.1,1.2-0.1l0.1,1.6c-0.4,0.2-1.1,0.3-1.9,0.3
				c-1,0-1.8-0.3-2.3-0.9c-0.6-0.6-0.8-1.7-0.8-3v-6.3h-1.8v-1.6h1.8v-2.8L339.4,431.6z"/>
			<path class="st0" d="M347.1,431.6c0,0.7-0.5,1.3-1.3,1.3c-0.7,0-1.3-0.6-1.3-1.3c0-0.7,0.6-1.3,1.3-1.3
				C346.6,430.3,347.1,430.9,347.1,431.6z M344.8,446.5v-11.6h2.1v11.6H344.8z"/>
			<path class="st0" d="M350.4,438c0-1.2,0-2.2-0.1-3.1h1.9l0.1,1.9h0c0.6-1.1,1.9-2.2,3.8-2.2c1.6,0,4.1,1,4.1,4.9v6.9h-2.1v-6.7
				c0-1.9-0.7-3.4-2.7-3.4c-1.4,0-2.5,1-2.8,2.2c-0.1,0.3-0.1,0.6-0.1,1v7h-2.1V438z"/>
			<path class="st0" d="M372,446.1c-0.6,0.3-1.8,0.7-3.3,0.7c-3.5,0-5.8-2.4-5.8-5.9c0-3.6,2.4-6.2,6.2-6.2c1.2,0,2.3,0.3,2.9,0.6
				l-0.5,1.6c-0.5-0.3-1.3-0.6-2.4-0.6c-2.7,0-4.1,2-4.1,4.4c0,2.7,1.7,4.3,4,4.3c1.2,0,2-0.3,2.6-0.6L372,446.1z"/>
			<path class="st0" d="M376.8,431.6c0,0.7-0.5,1.3-1.3,1.3c-0.7,0-1.3-0.6-1.3-1.3c0-0.7,0.6-1.3,1.3-1.3
				C376.3,430.3,376.8,430.9,376.8,431.6z M374.5,446.5v-11.6h2.1v11.6H374.5z"/>
			<path class="st0" d="M390.1,429.5v14c0,1,0,2.2,0.1,3h-1.9l-0.1-2h0c-0.6,1.3-2.1,2.3-4,2.3c-2.8,0-5-2.4-5-5.9
				c0-3.9,2.4-6.2,5.2-6.2c1.8,0,3,0.8,3.5,1.8h0v-6.9H390.1z M388,439.6c0-0.3,0-0.6-0.1-0.9c-0.3-1.3-1.5-2.4-3-2.4
				c-2.2,0-3.5,1.9-3.5,4.5c0,2.4,1.2,4.3,3.4,4.3c1.4,0,2.7-0.9,3.1-2.5c0.1-0.3,0.1-0.6,0.1-0.9V439.6z"/>
			<path class="st0" d="M403.3,443.3c0,1.2,0,2.3,0.1,3.2h-1.9l-0.1-1.9h0c-0.6,0.9-1.8,2.2-3.8,2.2c-1.8,0-4-1-4-5.1v-6.8h2.1v6.4
				c0,2.2,0.7,3.7,2.6,3.7c1.4,0,2.4-1,2.8-1.9c0.1-0.3,0.2-0.7,0.2-1.1v-7.1h2.1V443.3z"/>
			<path class="st0" d="M406.9,438c0-1.2,0-2.2-0.1-3.1h1.9l0.1,1.9h0c0.6-1.1,1.9-2.2,3.8-2.2c1.6,0,4.1,1,4.1,4.9v6.9h-2.1v-6.7
				c0-1.9-0.7-3.4-2.7-3.4c-1.4,0-2.5,1-2.8,2.2c-0.1,0.3-0.1,0.6-0.1,1v7h-2.1V438z"/>
			<path class="st0" d="M422.6,431.6v3.3h3v1.6h-3v6.3c0,1.4,0.4,2.3,1.6,2.3c0.6,0,1-0.1,1.2-0.1l0.1,1.6c-0.4,0.2-1.1,0.3-1.9,0.3
				c-1,0-1.8-0.3-2.3-0.9c-0.6-0.6-0.8-1.7-0.8-3v-6.3h-1.8v-1.6h1.8v-2.8L422.6,431.6z"/>
			<path class="st0" d="M442.8,443.3c0,1.2,0,2.3,0.1,3.2H441l-0.1-1.9h0c-0.6,0.9-1.8,2.2-3.8,2.2c-1.8,0-4-1-4-5.1v-6.8h2.1v6.4
				c0,2.2,0.7,3.7,2.6,3.7c1.4,0,2.4-1,2.8-1.9c0.1-0.3,0.2-0.7,0.2-1.1v-7.1h2.1V443.3z"/>
			<path class="st0" d="M448.9,431.6v3.3h3v1.6h-3v6.3c0,1.4,0.4,2.3,1.6,2.3c0.6,0,1-0.1,1.2-0.1l0.1,1.6c-0.4,0.2-1.1,0.3-1.9,0.3
				c-1,0-1.8-0.3-2.3-0.9c-0.6-0.6-0.8-1.7-0.8-3v-6.3H445v-1.6h1.8v-2.8L448.9,431.6z"/>
		</g>
	</g>
</g>
</svg>
